Patient4_TMGait_0pt8_01_right_01_GRF.mot
version=1
nRows=46
nColumns=19
inDegrees=no
endheader
time	F1x	F1y	F1z	M1x	M1y	M1z	F2x	F2y	F2z	M2x	M2y	M2z	EC1x	EC1y	EC1z	EC2x	EC2y	EC2z
0.74	-8.6575	691.1378	55.6063	-245.5971	-57.4616	691.1224	-1.8662	5.5463	6.5117	-0.71169	0.25594	7.7238	-0.0592	0.0182	-0.0073	-0.0462	0.0165	0.9585
0.7515	-5.9957	692.393	54.7451	-245.1625	-54.8014	691.0983	-1.4923	4.6092	4.3667	-0.11743	0.3268	6.1249	-0.0592	0.0182	-0.0073	-0.0462	0.0165	0.9585
0.763	-3.3988	694.7228	53.8076	-245.0615	-52.121	691.2237	-1.1721	3.83	2.5181	0.39875	0.40278	4.772	-0.0592	0.0182	-0.0073	-0.0462	0.0165	0.9585
0.7745	-0.95519	698.1963	52.8828	-245.3558	-49.5934	691.6137	-0.92834	3.2431	1.0933	0.80241	0.46977	3.7305	-0.0592	0.0182	-0.0073	-0.0462	0.0165	0.9585
0.786	1.3595	702.706	52.0524	-246.0291	-47.3095	692.2613	-0.76967	2.8513	0.091011	1.0929	0.53386	3.0132	-0.0592	0.0182	-0.0073	-0.0462	0.0165	0.9585
0.7975	3.62	708.0085	51.3982	-247.0049	-45.318	693.0561	-0.68591	2.6291	-0.54414	1.285	0.59499	2.5874	-0.0592	0.0182	-0.0073	-0.0462	0.0165	0.9585
0.809	5.9446	713.7834	50.9733	-248.1783	-43.6114	693.8194	-0.66865	2.5315	-0.90208	1.3959	0.66855	2.3887	-0.0592	0.0182	-0.0073	-0.0462	0.0165	0.9585
0.8205	8.4275	719.6982	50.7765	-249.438	-42.134	694.3486	-0.70438	2.4965	-1.0655	1.4374	0.7564	2.3331	-0.0592	0.0182	-0.0073	-0.0462	0.0165	0.9585
0.832	11.1561	725.428	50.8001	-250.6755	-40.8242	694.4338	-0.78947	2.4492	-1.1213	1.4109	0.87294	2.3241	-0.0592	0.0182	-0.0073	-0.0462	0.0165	0.9585
0.8435	14.1814	730.793	50.9876	-251.8282	-39.5907	693.9887	-0.91567	2.3057	-1.1334	1.3077	1.0267	2.2468	-0.0592	0.0182	-0.0073	-0.0462	0.0165	0.9585
0.855	17.5012	735.7897	51.32	-252.8938	-38.3957	693.0599	-1.0744	1.9751	-1.161	1.107	1.2335	1.9711	-0.0592	0.0182	-0.0073	-0.0462	0.0165	0.9585
0.8665	21.074	740.6087	51.777	-253.9329	-37.2186	691.8688	-1.2388	1.3677	-1.2364	0.78163	1.49	1.3647	-0.0592	0.0182	-0.0073	-0.0462	0.0165	0.9585
0.878	24.8298	745.5301	52.4057	-255.0354	-36.1117	690.6955	-1.3854	0.40264	-1.3671	0.30156	1.7788	0.32202	-0.0592	0.0182	-0.0073	-0.0462	0.0165	0.9585
0.8895	28.6699	750.8426	53.2441	-256.2926	-35.1303	689.8237	-1.4475	-0.96439	-1.5404	-0.34944	2.0536	-1.2082	-0.0592	0.0182	-0.0073	-0.0462	0.0165	0.9585
0.901	32.504	756.7373	54.3251	-257.7571	-34.3266	689.4604	-1.3476	-2.7091	-1.707	-1.1566	2.2244	-3.2092	-0.0592	0.0182	-0.0073	-0.0462	0.0165	0.9585
0.9125	36.2365	763.229	55.6215	-259.4165	-33.701	689.6639	-0.97962	-4.6689	-1.7875	-2.0455	2.1588	-5.5024	-0.0592	0.0182	-0.0073	-0.0462	0.0165	0.9585
0.924	39.7947	770.1665	57.0753	-261.2027	-33.2224	690.3349	-0.20731	-6.4963	-1.6643	-2.8582	1.6685	-7.6767	-0.0592	0.0182	-0.0073	-0.0462	0.0165	0.9585
0.9355	43.1433	777.2728	58.6312	-263.009	-32.8603	691.2654	1.1116	-7.575	-1.1672	-3.3163	0.49903	-9.0035	-0.0592	0.0182	-0.0073	-0.0462	0.0165	0.9585
0.947	46.304	784.216	60.228	-264.7179	-32.566	692.1781	3.1058	-6.9369	-0.098528	-2.9888	-1.6359	-8.3435	-0.0592	0.0182	-0.0073	-0.0462	0.0165	0.9585
0.9585	49.3707	790.6	61.8166	-266.1996	-32.283	692.7374	5.8432	-3.2566	1.767	-1.2861	-5.0289	-4.1299	-0.0592	0.0182	-0.0073	-0.0462	0.0165	0.9585
0.97	52.526	795.8382	63.3358	-267.2728	-31.9188	692.4101	9.2558	5.1311	4.6412	2.5294	-9.8897	5.599	-0.0592	0.0182	-0.0073	-0.0462	0.0165	0.9585
0.9815	55.95	799.0921	64.6873	-267.6803	-31.3467	690.4425	13.0296	20.0607	8.6297	9.268	-16.1943	23.0151	-0.0592	0.0182	-0.0073	-0.0462	0.0165	0.9585
0.993	59.7951	799.2144	65.7023	-267.0687	-30.3944	685.8361	16.4902	43.226	13.6631	19.6733	-23.5409	50.1268	-0.0592	0.0182	-0.0073	-0.0462	0.0165	0.9585
1.0045	64.0788	794.7841	66.1243	-264.9967	-28.8654	677.4131	18.4857	75.7025	19.3157	34.1989	-30.918	88.2293	-0.0592	0.0182	-0.0073	-0.0462	0.0165	0.9585
1.016	68.6418	784.208	65.6463	-260.9625	-26.5894	663.905	17.4814	117.3113	24.8874	52.724	-36.8076	137.1553	-0.0592	0.0182	-0.0073	-0.0462	0.0165	0.9585
1.0275	73.1405	765.8748	63.9571	-254.4535	-23.4543	644.0963	12.0852	165.989	29.1725	74.2674	-39.1716	194.5117	-0.0592	0.0182	-0.0073	-0.0462	0.0165	0.9585
1.039	77.0516	738.3604	60.8401	-245.013	-19.4837	616.9677	2.2555	217.5983	30.4575	96.9237	-36.0159	255.4159	-0.0592	0.0182	-0.0073	-0.0462	0.0165	0.9585
1.0505	79.7428	700.7014	56.2228	-232.3267	-14.8514	581.9055	-9.7559	267.2473	27.5408	118.4981	-27.0074	313.9324	-0.0592	0.0182	-0.0073	-0.0462	0.0165	0.9585
1.062	80.5922	652.7	50.2256	-216.3177	-9.873	538.9277	-21.6399	311.6459	21.0766	137.5731	-13.9911	365.8463	-0.0592	0.0182	-0.0073	-0.0462	0.0165	0.9585
1.0735	79.1119	595.0958	43.1681	-197.2034	-4.9615	488.7858	-31.9196	350.3547	12.3732	153.996	0.80928	410.3242	-0.0592	0.0182	-0.0073	-0.0462	0.0165	0.9585
1.085	75.0673	529.5949	35.5221	-175.5129	-0.55277	432.9688	-39.9999	384.9748	2.6802	168.5294	15.6494	449.1175	-0.0592	0.0182	-0.0073	-0.0462	0.0165	0.9585
1.0965	68.4889	458.7849	27.8287	-152.0667	2.9665	373.6125	-45.8492	418.0166	-6.8379	182.3385	29.1537	485.1488	-0.0592	0.0182	-0.0073	-0.0462	0.0165	0.9585
1.108	59.7339	385.8604	20.5837	-127.9018	5.3637	313.2489	-49.7744	451.8077	-15.205	196.5045	40.3492	521.165	-0.0592	0.0182	-0.0073	-0.0462	0.0165	0.9585
1.1195	49.4674	314.3189	14.2006	-104.1715	6.573	254.6161	-52.0742	487.7299	-21.9385	211.6846	48.833	558.7871	-0.0592	0.0182	-0.0073	-0.0462	0.0165	0.9585
1.131	38.5927	247.487	8.9304	-81.9867	6.7284	200.2472	-53.062	526.2129	-26.9246	228.0784	54.6441	598.5623	-0.0592	0.0182	-0.0073	-0.0462	0.0165	0.9585
1.1425	28.0555	188.0193	4.9089	-62.2348	6.0641	152.1215	-53.0324	566.7228	-30.5406	245.4334	58.3559	639.9831	-0.0592	0.0182	-0.0073	-0.0462	0.0165	0.9585
1.154	18.6773	137.4984	2.1311	-45.4469	4.8754	111.3652	-52.2581	607.9714	-33.3311	263.1443	60.7145	681.7252	-0.0592	0.0182	-0.0073	-0.0462	0.0165	0.9585
1.1655	10.928	96.3061	0.46314	-31.7593	3.4256	78.197	-50.9525	648.1485	-35.9197	280.3729	62.5169	721.8856	-0.0592	0.0182	-0.0073	-0.0462	0.0165	0.9585
1.177	4.9443	63.9711	-0.35546	-21.0234	1.9565	52.1859	-49.3795	685.3129	-38.7518	296.2379	64.3738	758.4408	-0.0592	0.0182	-0.0073	-0.0462	0.0165	0.9585
1.1885	0.64605	39.5261	-0.60532	-12.9214	0.64651	32.545	-47.7221	717.8569	-42.0125	310.0204	66.5737	789.7165	-0.0592	0.0182	-0.0073	-0.0462	0.0165	0.9585
1.2	-2.0997	21.8588	-0.54602	-7.0831	-0.35955	18.3728	-46.0703	744.7807	-45.5877	321.2892	69.0426	814.7001	-0.0592	0.0182	-0.0073	-0.0462	0.0165	0.9585
1.2115	-3.4758	9.8577	-0.37305	-3.1347	-0.98102	8.7673	-44.3846	765.6763	-49.1375	329.8924	71.423	833.0013	-0.0592	0.0182	-0.0073	-0.0462	0.0165	0.9585
1.223	-3.7693	2.4057	-0.18757	-0.70162	-1.2407	2.7943	-42.5945	780.5236	-52.334	335.8458	73.3591	844.6726	-0.0592	0.0182	-0.0073	-0.0462	0.0165	0.9585
1.2345	-3.449	-1.5528	-0.031535	0.57391	-1.2582	-0.39002	-40.6643	789.4223	-54.9698	339.2199	74.634	849.8917	-0.0592	0.0182	-0.0073	-0.0462	0.0165	0.9585
1.246	-2.8245	-3.1098	0.10349	1.0544	-1.1517	-1.6611	-38.5709	792.6396	-57.063	340.1413	75.2683	849.0175	-0.0592	0.0182	-0.0073	-0.0462	0.0165	0.9585
1.2575	-2.1433	-3.1415	0.20504	1.0336	-0.99461	-1.7013	-36.3279	790.7032	-58.6518	338.8521	75.3236	842.6546	-0.0592	0.0182	-0.0073	-0.0462	0.0165	0.9585
